# xmcd
#
# Track frame offsets:
#	150
#	27155
#	46922
#	72630
#	92425
#	120114
#	137958
#	164681
#	191896
#	217113
#	243696
#	283005
#	305100
#
# Disc length: 4421 seconds
#
# Revision: 0
# Processed by: cddbd v1.5.1PL0 Copyright (c) Steve Scherf et al.
# Submitted via: dBpowerAMP V4.0
#
DISCID=ca11430d
DTITLE=DJ Groove - Underground Acid Techno DJ Mix
DYEAR=2005
DGENRE=Rave
TTITLE0=Chris Liberator and Dave The Drummer - Promo (Minimum Maximum Rec)
TTITLE1=Android and Greezer - I Can't Belive  It's Not Better
TTITLE2=Dave The Drummer - Promo (23 Hydraulix Rec)
TTITLE3=Guy Mcaffer and Chris Liberator - Promo (Minimum Maximum Rec)
TTITLE4=K.N., Ant, James Kinetik - Feel The Dirty (Power Tools Rec)
TTITLE5=Rowland The Bastard and Guy Mcaffer - Out There (Smitten Rec)
TTITLE6=Ant - That Shit (Stay Up Forever Rec)
TTITLE7=Dave The Drummer aka Secret Hero - 1999 Flakey Gigs (Stay Up Forever Rec)
TTITLE8=Ant - That Shit (Stay Up Forever Rec)
TTITLE9=Darc Marc, Chino, Chris Liberator - Swarfega (Minimum Maximum Rec)
TTITLE10=Chris Liberator - Total Fucking Havok (Havok rec)
TTITLE11=Where? What? When? - Get it together (Stay Up Forever Rec)
TTITLE12=Ant and James Kinetiñ - General Narcotic (Mr.Burns+TheGeezer's Skankadelic Remix - Stay Up Forever Remix Rec)
EXTD=Information sent by DJ SkyFlyer
EXTT0=
EXTT1=
EXTT2=
EXTT3=
EXTT4=
EXTT5=
EXTT6=
EXTT7=
EXTT8=
EXTT9=
EXTT10=
EXTT11=
EXTT12=
PLAYORDER=
